<?xml version="1.0" encoding="UTF-8" standalone="no"?>
<!-- Created with Inkscape (http://www.inkscape.org/) -->

<svg
   xmlns:dc="http://purl.org/dc/elements/1.1/"
   xmlns:cc="http://creativecommons.org/ns#"
   xmlns:rdf="http://www.w3.org/1999/02/22-rdf-syntax-ns#"
   xmlns:svg="http://www.w3.org/2000/svg"
   xmlns="http://www.w3.org/2000/svg"
   version="1.1"
   width="500"
   height="500"
   id="svg5541">
  <defs
     id="defs5543" />
  <metadata
     id="metadata5546">
    <rdf:RDF>
      <cc:Work
         rdf:about="">
        <dc:format>image/svg+xml</dc:format>
        <dc:type
           rdf:resource="http://purl.org/dc/dcmitype/StillImage" />
        <dc:title></dc:title>
      </cc:Work>
    </rdf:RDF>
  </metadata>
  <g
     transform="translate(0,-552.36218)"
     id="layer1">
    <g
       transform="matrix(9.9602261,0,0,-9.9602261,492.80778,985.47572)"
       id="g5229">
      <g
         transform="matrix(0.97521912,0,0,0.97521912,-0.67250619,14.878314)"
         id="g4991">
        <g
           transform="matrix(1.0164858,0,0,1.0164858,-42.519624,9.6587203)"
           id="g9641">
          <path
             d="m 0,0 c -0.381,0 -0.688,-0.309 -0.688,-0.689 l 0,-22.501 c 0,-0.38 0.307,-0.689 0.688,-0.689 l 4.254,0 c 0.381,0 0.689,0.309 0.689,0.689 l 0,22.501 C 4.943,-0.309 4.635,0 4.254,0 L 0,0 z"
             id="path9643"
             style="opacity:0.9;fill:#f0f0f0;fill-opacity:1;fill-rule:nonzero;stroke:none" />
        </g>
        <g
           transform="matrix(1.0164858,0,0,1.0164858,-31.49905,9.6587203)"
           id="g9645">
          <path
             d="m 0,0 c -0.38,0 -0.688,-0.309 -0.688,-0.689 l 0,-22.501 c 0,-0.38 0.308,-0.689 0.688,-0.689 l 4.253,0 c 0.381,0 0.688,0.309 0.688,0.689 l 0,22.501 C 4.941,-0.309 4.634,0 4.253,0 L 0,0 z"
             id="path9647"
             style="opacity:0.9;fill:#f0f0f0;fill-opacity:1;fill-rule:nonzero;stroke:none" />
        </g>
        <g
           transform="matrix(1.0164858,0,0,1.0164858,-20.663232,9.6587203)"
           id="g9649">
          <path
             d="m 0,0 c -0.38,0 -0.688,-0.309 -0.688,-0.689 l 0,-22.501 c 0,-0.38 0.308,-0.689 0.688,-0.689 l 4.258,0 c 0.381,0 0.687,0.309 0.687,0.689 l 0,22.501 C 4.945,-0.309 4.639,0 4.258,0 L 0,0 z"
             id="path9651"
             style="opacity:0.9;fill:#f0f0f0;fill-opacity:1;fill-rule:nonzero;stroke:none" />
        </g>
        <g
           transform="matrix(1.0164858,0,0,1.0164858,-9.5464523,9.6587203)"
           id="g9653">
          <path
             d="m 0,0 c -0.38,0 -0.688,-0.309 -0.688,-0.689 l 0,-22.501 c 0,-0.38 0.308,-0.689 0.688,-0.689 l 4.257,0 c 0.381,0 0.689,0.309 0.689,0.689 l 0,22.501 C 4.946,-0.309 4.638,0 4.257,0 L 0,0 z"
             id="path9655"
             style="opacity:0.9;fill:#f0f0f0;fill-opacity:1;fill-rule:nonzero;stroke:none" />
        </g>
        <g
           transform="matrix(0.90588475,0,0,0.90588475,-23.997989,17.9535)"
           id="g9657">
          <path
             d="m -0.24386099,5.3430274 c 1.60795739,0 2.91070599,-1.3027485 2.91070599,-2.9107059 0,-1.60683543 -1.3027486,-2.91070602 -2.91070599,-2.91070602 -1.60795761,0 -2.91070611,1.30387059 -2.91070611,2.91070602 0,1.6079574 1.3027485,2.9107059 2.91070611,2.9107059 M -25.854483,-4.7255018 l 51.220122,0 0.01683,0 c 1.065986,0 1.931119,0.8640106 1.931119,1.9311199 0,0.8258595 -0.519528,1.5316552 -1.247766,1.8065677 L 0.61790542,11.254207 c -0.52962734,0.254715 -1.14453356,0.254715 -1.67303882,0.0022 L -26.690441,-1.0517734 c -0.813517,-0.390488 -1.248888,-1.2926497 -1.046912,-2.1701255 0.199732,-0.880842 0.980708,-1.5036029 1.88287,-1.5036029"
             id="path9659"
             style="opacity:0.9;fill:#f0f0f0;fill-opacity:1;fill-rule:nonzero;stroke:none" />
        </g>
        <g
           transform="matrix(1.0164858,0,0,1.0164858,-1.0194364,-18.191443)"
           id="g9661">
          <path
             d="m 0,0 -45.647,0 c -0.952,0 -1.721,-0.77 -1.721,-1.721 0,-0.951 0.769,-1.721 1.721,-1.721 l 45.647,0 c 0.951,0 1.723,0.77 1.723,1.721 C 1.723,-0.77 0.951,0 0,0"
             id="path9663"
             style="opacity:0.9;fill:#f0f0f0;fill-opacity:1;fill-rule:nonzero;stroke:none" />
        </g>
      </g>
    </g>
  </g>
</svg>
