<?xml version="1.0" encoding="UTF-8" standalone="no"?>
<!-- Created with Inkscape (http://www.inkscape.org/) -->

<svg
   xmlns:dc="http://purl.org/dc/elements/1.1/"
   xmlns:cc="http://creativecommons.org/ns#"
   xmlns:rdf="http://www.w3.org/1999/02/22-rdf-syntax-ns#"
   xmlns:svg="http://www.w3.org/2000/svg"
   xmlns="http://www.w3.org/2000/svg"
   version="1.1"
   width="500"
   height="500"
   id="svg5541">
  <defs
     id="defs5543" />
  <metadata
     id="metadata5546">
    <rdf:RDF>
      <cc:Work
         rdf:about="">
        <dc:format>image/svg+xml</dc:format>
        <dc:type
           rdf:resource="http://purl.org/dc/dcmitype/StillImage" />
        <dc:title></dc:title>
      </cc:Work>
    </rdf:RDF>
  </metadata>
  <g
     transform="translate(0,-552.36218)"
     id="layer1">
    <g
       transform="matrix(9.9602261,0,0,-9.9602261,492.80778,985.47572)"
       id="g5229">
      <g
         transform="matrix(0.97521912,0,0,0.97521912,-21.696902,5.935169)"
         id="g4987">
        <path
           d="M 0,0 0.558,0.001 C 0.581,0.19 0.616,0.362 0.654,0.533 L -2.326,-0.844 -3.12,-1.21 -3.883,-1.563 c 0.154,-3.861 3.333,-6.958 7.231,-6.958 3.996,0 7.245,3.251 7.245,7.246 C 10.595,0.66 9.84,2.479 8.471,3.849 8.402,3.918 8.327,3.979 8.256,4.045 L 7.493,3.692 6.687,3.32 4.908,2.499 C 4.98,2.457 5.054,2.42 5.122,2.372 5.631,2.011 5.884,1.561 5.884,1.024 5.884,0.841 5.822,0.687 5.703,0.561 5.586,0.434 5.439,0.37 5.269,0.37 5.076,0.37 4.937,0.418 4.852,0.515 4.762,0.612 4.678,0.762 4.59,0.962 4.483,1.228 4.354,1.43 4.205,1.568 4.056,1.709 3.802,1.78 3.444,1.78 3.384,1.78 3.339,1.754 3.281,1.748 L 2.603,1.433 C 2.57,1.4 2.525,1.386 2.496,1.349 2.273,1.061 2.132,0.612 2.068,0 L 3.87,0.001 C 3.943,0 3.98,-0.048 3.98,-0.145 3.98,-0.25 3.948,-0.37 3.878,-0.505 3.81,-0.641 3.748,-0.71 3.696,-0.71 l -1.673,0 -0.009,-0.548 c 0,-0.169 0.002,-0.288 0.009,-0.363 l 1.847,0 C 3.943,-1.622 3.982,-1.667 3.982,-1.761 3.98,-1.869 3.946,-1.991 3.878,-2.127 3.81,-2.264 3.748,-2.332 3.696,-2.332 l -1.638,0 c 0.129,-1.339 0.559,-2.007 1.286,-2.007 0.272,0 0.521,0.064 0.746,0.195 0.226,0.13 0.443,0.437 0.651,0.917 0.136,0.313 0.251,0.508 0.347,0.584 0.098,0.077 0.203,0.116 0.313,0.115 0.225,10e-4 0.398,-0.064 0.525,-0.192 0.125,-0.129 0.186,-0.309 0.186,-0.54 0,-0.549 -0.269,-1.054 -0.805,-1.518 C 4.77,-5.244 4.12,-5.475 3.355,-5.475 c -0.716,0 -1.34,0.26 -1.875,0.781 -0.532,0.52 -0.851,1.306 -0.955,2.362 l -0.711,0 c -0.067,0 -0.101,0.048 -0.101,0.145 0,0.095 0.037,0.211 0.106,0.353 0.072,0.141 0.132,0.212 0.181,0.212 l 0.479,0.001 0,0.2 c 0,0.165 0.008,0.4 0.024,0.711 l -0.689,0 c -0.067,0 -0.101,0.046 -0.101,0.141 0,0.096 0.037,0.215 0.106,0.357 C -0.108,-0.071 -0.049,0.001 0,0"
           id="path4989"
           style="opacity:0.9;fill:#f0f0f0;fill-opacity:1;fill-rule:nonzero;stroke:none" />
      </g>
      <g
         transform="matrix(0.97521912,0,0,0.97521912,-0.67250619,14.878314)"
         id="g4991">
        <path
           d="m 0,0 c -0.241,0.243 -0.569,0.378 -0.911,0.378 l -4.101,0 c -0.056,-1.015 -0.644,-1.971 -1.632,-2.426 l -0.336,-0.156 4.777,0 0,-16.483 -32.016,0 0,3.898 -2.583,-1.193 0,-3.996 c 0,-0.713 0.579,-1.291 1.292,-1.291 l 34.599,0 c 0.712,0 1.29,0.578 1.29,1.291 l 0,19.065 C 0.379,-0.57 0.243,-0.242 0,0"
           id="path4993"
           style="opacity:0.9;fill:#f0f0f0;fill-opacity:1;fill-rule:nonzero;stroke:none" />
      </g>
      <g
         transform="matrix(0.97521912,0,0,0.97521912,-39.284158,3.8717546)"
         id="g4995">
        <path
           d="M 0,0 -6.913,14.963 22.151,28.391 29.064,13.428 0,0 z m 32.037,12.646 c 0.028,0.229 0.018,0.466 -0.088,0.693 l -7.996,17.307 c -0.142,0.311 -0.404,0.552 -0.726,0.67 -0.144,0.053 -0.295,0.08 -0.446,0.08 -0.012,0 -0.023,-0.003 -0.036,-0.004 -0.016,0 -0.032,-0.004 -0.05,-0.005 -0.156,-0.011 -0.311,-0.043 -0.455,-0.11 L -9.168,16.765 c -0.648,-0.299 -0.93,-1.066 -0.632,-1.713 l 7.996,-17.307 c 0.145,-0.311 0.406,-0.552 0.728,-0.67 0.142,-0.054 0.294,-0.08 0.445,-0.08 0.185,0 0.37,0.04 0.541,0.119 l 31.409,14.511 c 0.421,0.194 0.665,0.592 0.718,1.021"
           id="path4997"
           style="opacity:0.9;fill:#f0f0f0;fill-opacity:1;fill-rule:nonzero;stroke:none" />
      </g>
      <g
         transform="matrix(0.97521912,0,0,0.97521912,-30.489169,19.524802)"
         id="g4999">
        <path
           d="M 0,0 C -0.086,-0.19 -0.069,-0.414 0.047,-0.667 0.158,-0.908 0.31,-1.059 0.501,-1.12 0.692,-1.183 0.949,-1.2 1.271,-1.173 L 0.461,0.58 C 0.24,0.385 0.086,0.191 0,0"
           id="path5001"
           style="opacity:0.9;fill:#f0f0f0;fill-opacity:1;fill-rule:nonzero;stroke:none" />
      </g>
      <g
         transform="matrix(0.97521912,0,0,0.97521912,-27.202519,17.282032)"
         id="g5003">
        <path
           d="m 0,0 c -0.231,0.068 -0.527,0.081 -0.891,0.035 l 0.52,-1.122 0.407,-0.882 c 0.279,0.202 0.46,0.436 0.542,0.7 0.02,0.061 0.015,0.122 0.024,0.182 0.026,0.199 0.014,0.395 -0.073,0.584 C 0.408,-0.237 0.23,-0.071 0,0"
           id="path5005"
           style="opacity:0.9;fill:#f0f0f0;fill-opacity:1;fill-rule:nonzero;stroke:none" />
      </g>
      <g
         transform="matrix(0.97521912,0,0,0.97521912,-25.482625,16.222089)"
         id="g5007">
        <path
           d="m 0,0 c -0.046,-0.317 -0.149,-0.623 -0.345,-0.91 -0.228,-0.339 -0.551,-0.627 -0.97,-0.865 l 0.349,-0.757 c 0.009,-0.019 0.012,-0.033 0.02,-0.05 0.067,-0.154 0.105,-0.28 0.108,-0.369 0.003,-0.098 -0.054,-0.174 -0.173,-0.23 -0.109,-0.05 -0.204,-0.053 -0.279,-0.007 -0.075,0.048 -0.143,0.142 -0.207,0.281 l -0.15,0.325 -0.245,0.529 c -0.376,-0.125 -0.727,-0.187 -1.053,-0.181 -0.326,0.005 -0.622,0.061 -0.89,0.17 -0.266,0.108 -0.489,0.245 -0.67,0.412 -0.181,0.167 -0.318,0.348 -0.41,0.547 -0.066,0.147 -0.071,0.305 -0.01,0.475 0.061,0.171 0.176,0.296 0.348,0.375 0.136,0.063 0.265,0.083 0.39,0.064 0.125,-0.02 0.231,-0.08 0.323,-0.18 0.198,-0.212 0.357,-0.37 0.479,-0.475 0.122,-0.104 0.272,-0.183 0.446,-0.236 0.174,-0.052 0.378,-0.061 0.609,-0.024 L -2.841,0 -3.313,1.024 C -3.774,0.947 -4.175,0.914 -4.515,0.926 -4.853,0.938 -5.167,1.033 -5.456,1.21 -5.744,1.388 -5.983,1.677 -6.17,2.081 c -0.242,0.524 -0.273,1.032 -0.094,1.522 0.18,0.49 0.572,0.908 1.179,1.255 l -0.313,0.678 c -0.118,0.256 -0.081,0.428 0.11,0.517 0.194,0.09 0.351,0.009 0.467,-0.24 l 0.316,-0.687 c 0.343,0.119 0.653,0.181 0.934,0.187 0.279,0.007 0.553,-0.051 0.822,-0.175 0.208,-0.092 0.39,-0.203 0.541,-0.333 0.15,-0.131 0.256,-0.264 0.32,-0.401 C -1.816,4.251 -1.812,4.093 -1.871,3.93 -1.932,3.767 -2.041,3.648 -2.199,3.576 -2.499,3.437 -2.766,3.51 -3.006,3.792 -3.282,4.128 -3.643,4.269 -4.083,4.216 l 0.878,-1.904 c 0.427,0.071 0.772,0.116 1.035,0.134 0.266,0.017 0.523,-0.013 0.773,-0.093 0.267,-0.081 0.505,-0.213 0.716,-0.4 0.21,-0.185 0.379,-0.418 0.507,-0.696 C -0.013,0.909 0.058,0.545 0.032,0.167 0.029,0.109 0.008,0.056 0,0 M -3.101,8.798 C -3.2,8.798 -3.299,8.786 -3.398,8.782 -4.344,8.743 -5.265,8.53 -6.134,8.129 -7.019,7.72 -7.794,7.151 -8.434,6.457 -9.065,5.768 -9.563,4.957 -9.896,4.053 -10.38,2.735 -10.466,1.339 -10.17,0 c 0.112,-0.506 0.274,-1.006 0.498,-1.488 0.179,-0.389 0.401,-0.75 0.642,-1.095 1.34,-1.918 3.551,-3.114 5.938,-3.114 0.102,0 0.199,0.012 0.299,0.016 0.946,0.039 1.867,0.251 2.736,0.654 0.883,0.408 1.66,0.977 2.298,1.672 0.222,0.241 0.421,0.502 0.608,0.773 0.347,0.5 0.638,1.044 0.855,1.63 C 3.82,-0.639 3.904,-0.32 3.976,0 4.315,1.538 4.153,3.135 3.481,4.589 2.301,7.146 -0.283,8.798 -3.101,8.798"
           id="path5009"
           style="opacity:0.9;fill:#f0f0f0;fill-opacity:1;fill-rule:nonzero;stroke:none" />
      </g>
    </g>
  </g>
</svg>
