<?xml version="1.0" encoding="UTF-8" standalone="no"?>
<!-- Created with Inkscape (http://www.inkscape.org/) -->

<svg
   xmlns:dc="http://purl.org/dc/elements/1.1/"
   xmlns:cc="http://creativecommons.org/ns#"
   xmlns:rdf="http://www.w3.org/1999/02/22-rdf-syntax-ns#"
   xmlns:svg="http://www.w3.org/2000/svg"
   xmlns="http://www.w3.org/2000/svg"
   version="1.1"
   width="500"
   height="500"
   id="svg5541">
  <defs
     id="defs5543" />
  <metadata
     id="metadata5546">
    <rdf:RDF>
      <cc:Work
         rdf:about="">
        <dc:format>image/svg+xml</dc:format>
        <dc:type
           rdf:resource="http://purl.org/dc/dcmitype/StillImage" />
        <dc:title></dc:title>
      </cc:Work>
    </rdf:RDF>
  </metadata>
  <g
     transform="translate(0,-552.36218)"
     id="layer1">
    <g
       transform="matrix(9.9602261,0,0,-9.9602261,492.80778,985.47572)"
       id="g5229">
      <path
         d="m 0,0 c -5.389,2.084 -11.372,3.697 -11.874,5.31 l 0,2.796 c 5.382,0.014 7.517,1.754 7.517,1.754 -2.246,1.276 -2.956,10.189 -2.956,10.189 0,2.729 -1.151,5.173 -2.958,6.841 -0.68,0.789 -1.615,1.383 -2.819,1.738 -0.903,0.337 -1.871,0.528 -2.883,0.528 -1.077,0 -2.1,-0.216 -3.05,-0.593 -0.975,-0.322 -1.774,-0.809 -2.397,-1.438 -0.056,-0.048 -0.105,-0.103 -0.16,-0.152 0.538,-1.263 0.828,-2.721 0.828,-4.365 l 0,-3.334 c 0.441,-0.813 0.677,-1.725 0.677,-2.648 0,-1.473 -0.576,-2.869 -1.578,-3.897 -0.509,-1.535 -1.218,-2.925 -2.095,-4.108 0.097,-0.078 0.204,-0.161 0.32,-0.248 0.94,-0.156 2.05,-0.263 3.355,-0.267 l 0,-1.795 c 1.972,-1.074 4.477,-2.265 7.226,-3.329 1.493,-0.573 2.495,-2.039 2.495,-3.646 l 0,-4.586 c 0,-0.46 -0.093,-0.895 -0.239,-1.305 l 10.168,0 c 0.655,0 1.186,0.539 1.186,1.202 l 0,4.229 C 0.763,-0.624 0.459,-0.176 0,0"
         id="path5231"
         style="opacity:0.9;fill:#f0f0f0;fill-opacity:1;fill-rule:nonzero;stroke:none" />
    </g>
    <g
       transform="matrix(9.9602261,0,0,-9.9602261,355.5628,979.94103)"
       id="g5233">
      <path
         d="m 0,0 c -0.613,0.237 -1.233,0.49 -1.853,0.752 -0.061,0.026 -0.123,0.051 -0.183,0.077 -0.602,0.256 -1.2,0.522 -1.792,0.793 -0.068,0.031 -0.136,0.063 -0.203,0.094 -0.596,0.275 -1.182,0.557 -1.752,0.842 -0.047,0.023 -0.094,0.046 -0.142,0.071 -0.584,0.293 -1.153,0.589 -1.694,0.885 -2.83,1.544 -4.959,3.06 -5.261,4.028 l 0,1.103 c 0.026,0.027 0.049,0.061 0.075,0.088 0.004,0.004 0.007,0.01 0.012,0.014 0.582,0.614 1.105,1.337 1.55,2.156 0.032,0.06 0.056,0.127 0.089,0.188 0.185,0.357 0.366,0.722 0.522,1.112 0.185,0.46 0.349,0.94 0.487,1.439 0.752,0.527 1.249,1.418 1.249,2.428 0,0.718 -0.261,1.368 -0.676,1.879 l 0,4.104 c 0,0.318 -0.018,0.627 -0.045,0.929 -0.002,0.026 -0.006,0.049 -0.008,0.074 -0.357,3.684 -2.745,6.135 -7.702,6.135 -5.253,0 -7.755,-2.9 -7.755,-7.138 l 0,-4.105 c -0.415,-0.51 -0.675,-1.16 -0.675,-1.878 0,-1.009 0.495,-1.898 1.247,-2.428 0.567,-2.027 1.523,-3.756 2.736,-4.997 l 0,-1.103 C -22.317,5.797 -28.809,2.261 -34.653,0 c -0.498,-0.192 -0.828,-0.678 -0.828,-1.22 l 0,-4.586 c 0,-0.719 0.577,-1.304 1.286,-1.304 l 16.449,0 17.287,0 c 0.711,0 1.287,0.585 1.287,1.304 l 0,4.586 C 0.828,-0.678 0.498,-0.191 0,0"
         id="path5235"
         style="opacity:0.9;fill:#f0f0f0;fill-opacity:1;fill-rule:nonzero;stroke:none" />
    </g>
  </g>
</svg>
