<?xml version="1.0" encoding="UTF-8" standalone="no"?>
<!-- Created with Inkscape (http://www.inkscape.org/) -->

<svg
   xmlns:dc="http://purl.org/dc/elements/1.1/"
   xmlns:cc="http://creativecommons.org/ns#"
   xmlns:rdf="http://www.w3.org/1999/02/22-rdf-syntax-ns#"
   xmlns:svg="http://www.w3.org/2000/svg"
   xmlns="http://www.w3.org/2000/svg"
   version="1.1"
   width="500"
   height="500"
   id="svg5001">
  <defs
     id="defs5003" />
  <metadata
     id="metadata5006">
    <rdf:RDF>
      <cc:Work
         rdf:about="">
        <dc:format>image/svg+xml</dc:format>
        <dc:type
           rdf:resource="http://purl.org/dc/dcmitype/StillImage" />
        <dc:title></dc:title>
      </cc:Work>
    </rdf:RDF>
  </metadata>
  <g
     transform="translate(0,-552.36218)"
     id="layer1">
    <g
       transform="matrix(10.010378,0,0,-10.010378,199.24341,676.94862)"
       id="g3069">
      <path
         d="m 0,0 c -3.886,0 -7.047,-3.161 -7.047,-7.046 0,-3.884 3.161,-7.045 7.047,-7.045 3.884,0 7.045,3.161 7.045,7.045 C 7.045,-3.161 3.884,0 0,0"
         id="path3071"
         style="opacity:0.9;fill:#1e1e14;fill-opacity:1;fill-rule:nonzero;stroke:none" />
    </g>
    <g
       transform="matrix(9.8958656,0,0,-9.8958656,376.75586,955.69092)"
       id="g3073">
      <path
         d="m 0,0 c -0.812,-0.811 -2.436,-1.749 -2.436,-1.749 0,0 -1.123,-0.185 -1.624,0.312 -0.499,0.5 -8.557,10.621 -8.557,10.621 l 0,0.312 0.657,0.655 -1.091,1.244 c -1.486,-0.761 -3.163,-1.199 -4.942,-1.199 -6.007,0 -10.894,4.888 -10.894,10.893 0,6.005 4.887,10.893 10.894,10.893 6.004,0 10.891,-4.888 10.891,-10.893 0,-2.974 -1.199,-5.671 -3.14,-7.64 l 0.873,-1.206 0.594,0.595 0.593,0 L 0,1.937 C 0,1.937 0.813,0.813 0,0 M -12.78,40.271 C -26.56,40.271 -37.731,29.1 -37.731,15.32 -37.731,1.542 -26.56,-9.629 -12.78,-9.629 1,-9.629 12.17,1.542 12.17,15.32 12.17,29.1 1,40.271 -12.78,40.271"
         id="path3075"
         style="opacity:0.9;fill:#1e1e14;fill-opacity:1;fill-rule:nonzero;stroke:none" />
    </g>
    <path
       d="M 339.088,417.56208 C 333.88519,413.91788 253,313.65504 253,310.84998 c 0,-0.89831 1.36091,-3.08191 3.02424,-4.85245 l 3.02425,-3.21916 -5.3933,-6.58182 c -3.81905,-4.66062 -6.05702,-6.2974 -7.6671,-5.60747 -1.25059,0.53589 -7.73809,2.92595 -14.41666,5.31125 -16.82085,6.00768 -39.50572,7.03487 -57.24216,2.59198 -35.80705,-8.9695 -64.51977,-34.66821 -76.251648,-68.24744 -12.213674,-34.95822 -6.429157,-70.87172 16.233688,-100.78781 13.45191,-17.75718 36.06305,-32.650515 58.27909,-38.386834 15.01371,-3.876632 37.14389,-3.900107 52.03196,-0.0552 37.34545,9.644644 67.69271,39.790714 77.81914,77.303224 3.14834,11.66276 3.53261,38.84072 0.7055,49.89765 -4.2822,16.74787 -12.95249,33.59151 -23.86807,46.36813 -5.12879,6.00322 -5.0737,6.57955 1.381,14.44851 l 3.51546,4.28571 3.57057,-3.34357 c 1.96383,-1.83897 4.56085,-3.12468 5.77121,-2.85714 2.66072,0.58812 81.80074,105.60906 84.7439,112.4574 2.86516,6.66684 0.63979,11.44871 -8.62431,18.53191 -15.54179,11.88305 -23.54572,14.36036 -30.54876,9.45523 l 0,0 z M 219.42857,263.00961 c 12.20337,-3.80868 20.96316,-8.99676 29.30739,-17.35756 14.35275,-14.38125 21.4069,-31.17793 21.4069,-50.97216 0,-45.20567 -44.22305,-79.80971 -87.56687,-68.52008 -32.84081,8.55395 -53.89777,35.57669 -53.84066,69.09464 0.0332,19.4659 6.0038,34.66405 19.02787,48.43508 18.58789,19.65395 46.49235,27.17664 71.66537,19.32008 z"
       transform="translate(0,552.36218)"
       id="path5790"
       style="opacity:0.9;fill:#f0f0f0;fill-opacity:1;stroke:#f0f0f0;stroke-width:1.42857146;stroke-linejoin:round;stroke-miterlimit:4;stroke-opacity:1;stroke-dasharray:none" />
  </g>
</svg>
