<?xml version="1.0" encoding="UTF-8" standalone="no"?>
<!-- Created with Inkscape (http://www.inkscape.org/) -->

<svg
   xmlns:dc="http://purl.org/dc/elements/1.1/"
   xmlns:cc="http://creativecommons.org/ns#"
   xmlns:rdf="http://www.w3.org/1999/02/22-rdf-syntax-ns#"
   xmlns:svg="http://www.w3.org/2000/svg"
   xmlns="http://www.w3.org/2000/svg"
   version="1.1"
   width="500"
   height="500"
   id="svg5541">
  <defs
     id="defs5543" />
  <metadata
     id="metadata5546">
    <rdf:RDF>
      <cc:Work
         rdf:about="">
        <dc:format>image/svg+xml</dc:format>
        <dc:type
           rdf:resource="http://purl.org/dc/dcmitype/StillImage" />
        <dc:title></dc:title>
      </cc:Work>
    </rdf:RDF>
  </metadata>
  <g
     transform="translate(0,-552.36218)"
     id="layer1">
    <g
       transform="matrix(9.9602261,0,0,-9.9602261,492.80778,985.47572)"
       id="g5229">
      <g
         transform="matrix(0.97521912,0,0,0.97521912,-0.67250619,14.878314)"
         id="g4991">
        <g
           transform="matrix(0.90588475,0,0,0.90588475,-23.997989,17.9535)"
           id="g9657">
          <g
             transform="matrix(1.1160015,0,0,1.1160015,-16.81253,-25.129804)"
             id="g10886">
            <path
               d="m 0,0 c 0.191,-0.257 0.448,-0.458 0.77,-0.601 0.322,-0.143 0.722,-0.215 1.201,-0.215 0.496,0 0.903,0.089 1.221,0.267 0.317,0.179 0.572,0.421 0.764,0.725 0.182,-0.304 0.431,-0.546 0.744,-0.725 0.313,-0.178 0.726,-0.267 1.24,-0.267 0.479,0 0.877,0.072 1.195,0.215 C 7.453,-0.458 7.708,-0.257 7.899,0 8.09,0.257 8.225,0.561 8.304,0.914 8.382,1.266 8.421,1.647 8.421,2.057 l 0,3.302 c 0,0.158 -0.07,0.299 -0.209,0.425 C 8.073,5.91 7.881,5.973 7.638,5.973 7.42,5.973 7.244,5.91 7.109,5.784 6.974,5.658 6.907,5.517 6.907,5.359 l 0,-3.355 C 6.907,1.525 6.819,1.173 6.646,0.947 6.471,0.72 6.192,0.606 5.81,0.606 5.418,0.606 5.139,0.72 4.974,0.947 4.809,1.173 4.726,1.525 4.726,2.004 l 0,3.369 C 4.726,5.564 4.644,5.712 4.478,5.816 4.313,5.921 4.143,5.973 3.969,5.973 3.891,5.973 3.806,5.958 3.714,5.927 3.623,5.897 3.538,5.858 3.459,5.81 3.381,5.762 3.316,5.704 3.264,5.634 3.211,5.564 3.186,5.49 3.186,5.412 l 0,-3.408 C 3.186,1.525 3.103,1.173 2.937,0.947 2.772,0.72 2.493,0.606 2.102,0.606 1.709,0.606 1.429,0.72 1.259,0.947 1.09,1.173 1.004,1.525 1.004,2.004 l 0,3.355 C 1.004,5.517 0.937,5.658 0.802,5.784 0.667,5.91 0.487,5.973 0.26,5.973 0.026,5.973 -0.164,5.91 -0.308,5.784 -0.451,5.658 -0.523,5.517 -0.523,5.359 l 0,-3.302 c 0,-0.41 0.039,-0.791 0.118,-1.143 C -0.327,0.561 -0.192,0.257 0,0"
               id="path10888"
               style="opacity:0.9;fill:#f0f0f0;fill-opacity:1;fill-rule:nonzero;stroke:none" />
          </g>
          <g
             transform="matrix(1.1160015,0,0,1.1160015,-5.0688484,-25.129804)"
             id="g10890">
            <path
               d="m 0,0 c 0.191,-0.257 0.448,-0.458 0.77,-0.601 0.322,-0.143 0.723,-0.215 1.201,-0.215 0.497,0 0.904,0.089 1.221,0.267 0.318,0.179 0.573,0.421 0.764,0.725 0.183,-0.304 0.431,-0.546 0.744,-0.725 0.314,-0.178 0.727,-0.267 1.24,-0.267 0.479,0 0.878,0.072 1.195,0.215 C 7.454,-0.458 7.708,-0.257 7.899,0 8.09,0.257 8.226,0.561 8.304,0.914 8.382,1.266 8.421,1.647 8.421,2.057 l 0,3.302 C 8.421,5.517 8.352,5.658 8.213,5.784 8.073,5.91 7.882,5.973 7.638,5.973 7.42,5.973 7.244,5.91 7.109,5.784 6.974,5.658 6.907,5.517 6.907,5.359 l 0,-3.355 C 6.907,1.525 6.82,1.173 6.646,0.947 6.472,0.72 6.193,0.606 5.81,0.606 5.418,0.606 5.14,0.72 4.975,0.947 4.809,1.173 4.727,1.525 4.727,2.004 l 0,3.369 C 4.727,5.564 4.644,5.712 4.478,5.816 4.313,5.921 4.143,5.973 3.969,5.973 3.891,5.973 3.806,5.958 3.715,5.927 3.624,5.897 3.539,5.858 3.46,5.81 3.382,5.762 3.316,5.704 3.264,5.634 3.211,5.564 3.186,5.49 3.186,5.412 l 0,-3.408 C 3.186,1.525 3.103,1.173 2.938,0.947 2.772,0.72 2.494,0.606 2.102,0.606 1.71,0.606 1.429,0.72 1.26,0.947 1.09,1.173 1.005,1.525 1.005,2.004 l 0,3.355 C 1.005,5.517 0.938,5.658 0.803,5.784 0.667,5.91 0.487,5.973 0.261,5.973 0.026,5.973 -0.163,5.91 -0.307,5.784 -0.45,5.658 -0.522,5.517 -0.522,5.359 l 0,-3.302 c 0,-0.41 0.039,-0.791 0.117,-1.143 C -0.326,0.561 -0.191,0.257 0,0"
               id="path10892"
               style="opacity:0.9;fill:#f0f0f0;fill-opacity:1;fill-rule:nonzero;stroke:none" />
          </g>
          <g
             transform="matrix(1.1160015,0,0,1.1160015,6.6758314,-25.129804)"
             id="g10894">
            <path
               d="m 0,0 c 0.191,-0.257 0.448,-0.458 0.771,-0.601 0.321,-0.143 0.722,-0.215 1.201,-0.215 0.495,0 0.902,0.089 1.22,0.267 0.317,0.179 0.573,0.421 0.765,0.725 0.182,-0.304 0.43,-0.546 0.744,-0.725 0.313,-0.178 0.726,-0.267 1.24,-0.267 0.478,0 0.876,0.072 1.195,0.215 C 7.453,-0.458 7.708,-0.257 7.899,0 8.09,0.257 8.226,0.561 8.304,0.914 8.382,1.266 8.422,1.647 8.422,2.057 l 0,3.302 c 0,0.158 -0.07,0.299 -0.21,0.425 C 8.073,5.91 7.881,5.973 7.638,5.973 7.42,5.973 7.244,5.91 7.109,5.784 6.974,5.658 6.907,5.517 6.907,5.359 l 0,-3.355 C 6.907,1.525 6.82,1.173 6.646,0.947 6.472,0.72 6.193,0.606 5.81,0.606 5.418,0.606 5.14,0.72 4.975,0.947 4.809,1.173 4.727,1.525 4.727,2.004 l 0,3.369 C 4.727,5.564 4.644,5.712 4.479,5.816 4.313,5.921 4.143,5.973 3.969,5.973 3.891,5.973 3.806,5.958 3.714,5.927 3.623,5.897 3.538,5.858 3.46,5.81 3.382,5.762 3.316,5.704 3.264,5.634 3.212,5.564 3.186,5.49 3.186,5.412 l 0,-3.408 C 3.186,1.525 3.103,1.173 2.938,0.947 2.772,0.72 2.494,0.606 2.103,0.606 1.71,0.606 1.43,0.72 1.26,0.947 1.09,1.173 1.005,1.525 1.005,2.004 l 0,3.355 C 1.005,5.517 0.938,5.658 0.803,5.784 0.668,5.91 0.487,5.973 0.261,5.973 0.026,5.973 -0.164,5.91 -0.307,5.784 -0.451,5.658 -0.522,5.517 -0.522,5.359 l 0,-3.302 c 0,-0.41 0.039,-0.791 0.117,-1.143 C -0.327,0.561 -0.192,0.257 0,0"
               id="path10896"
               style="opacity:0.9;fill:#f0f0f0;fill-opacity:1;fill-rule:nonzero;stroke:none" />
          </g>
          <g
             transform="matrix(1.1160015,0,0,1.1160015,18.521963,-26.040909)"
             id="g10898">
            <path
               d="M 0,0 C 0.235,0 0.429,0.065 0.581,0.196 0.733,0.327 0.81,0.475 0.81,0.64 l 0,0.326 C 0.81,1.132 0.733,1.28 0.581,1.411 0.429,1.541 0.235,1.606 0,1.606 -0.261,1.606 -0.468,1.541 -0.62,1.411 -0.772,1.28 -0.849,1.132 -0.849,0.966 l 0,-0.326 c 0,-0.165 0.077,-0.313 0.229,-0.444 C -0.468,0.065 -0.261,0 0,0"
               id="path10900"
               style="opacity:0.9;fill:#f0f0f0;fill-opacity:1;fill-rule:nonzero;stroke:none" />
          </g>
          <path
             d="m 23.818731,-39.920172 -48.027125,0 0,33.50571 48.027125,0 0,-33.50571 z M -24.152594,0.24360263 c 0,0.42854249 0.348176,0.77561867 0.775619,0.77561867 l 35.813604,0 c 0.427441,0 0.774519,-0.34707618 0.774519,-0.77561867 l 0,-1.95634503 c 0,-0.4274427 -0.347078,-0.7734198 -0.774519,-0.7734198 l -35.813604,0 c -0.427443,0 -0.775619,0.3459771 -0.775619,0.7734198 l 0,1.95634503 z M 19.949555,1.0192213 c 1.079173,0 1.956354,-0.87718054 1.956354,-1.95635384 0,-1.08140366 -0.877181,-1.95746796 -1.956354,-1.95746796 -1.080288,0 -1.957469,0.8760643 -1.957469,1.95746796 0,1.0791733 0.877181,1.95635384 1.957469,1.95635384 m 5.805442,3.9294398 -51.89965,0 c -1.070249,0 -1.937381,-0.8671328 -1.937381,-1.9362657 l 0,-44.8699544 c 0,-1.06913 0.867132,-1.936262 1.937381,-1.936262 l 51.89965,0 c 1.071355,0 1.937373,0.867132 1.937373,1.936262 l 0,44.8699544 c 0,1.0691329 -0.866018,1.9362657 -1.937373,1.9362657"
             id="path10902"
             style="opacity:0.9;fill:#f0f0f0;fill-opacity:1;fill-rule:nonzero;stroke:none" />
        </g>
      </g>
    </g>
  </g>
</svg>
